# xmcd
#
# Track frame offsets:
#	150
#	18675
#	30337
#	42325
#	53187
#	69475
#	83412
#	99975
#	113300
#	130900
#	148350
#	165800
#	179600
#	190850
#	205425
#	219700
#
# Disc length: 3104 seconds
#
# Revision: 1
# Processed by: cddbd v1.5PL3 Copyright (c) Steve Scherf et al.
# Submitted via: audiograbber 1.83.01
#
DISCID=da0c1e10
DTITLE=Schmuse country - Vol 2
DYEAR=1995
DGENRE=Country
TTITLE0=Dolly Parton - More than I can Say
TTITLE1=Johnny Cash - I Still Miss Someone
TTITLE2=Charlie Rich - The Most Beautiful Girl
TTITLE3=Tanya Tucker Would You Lay With Me
TTITLE4=Willie Nelson - Over the Rainbow
TTITLE5=Ricky van Stelton - I`ll leave this World loving You
TTITLE6=Mark Gray and tammy Wynette - Sometimes when we touch
TTITLE7=Moe Bandy - Yersterday once More
TTITLE8=Beverly Jo Scott - One Shot Shy
TTITLE9=Charlie Daniels Band - Behind Your Eyes
TTITLE10=Collin Raye - Love, Me
TTITLE11=Barbara Fairchild - Teddy bear Song
TTITLE12=Sandy Posey - Why don`t we do somewhere and Love
TTITLE13=Lacy J. Dalton - Blue Eyed Blues
TTITLE14=Sweethearts of the Rodeo - So sad
TTITLE15=Merle Haggard - To all the Girls i`ve Loved Bevore
EXTD=
EXTT0=
EXTT1=
EXTT2=
EXTT3=
EXTT4=
EXTT5=
EXTT6=
EXTT7=
EXTT8=
EXTT9=
EXTT10=
EXTT11=
EXTT12=
EXTT13=
EXTT14=
EXTT15=
PLAYORDER=
